<svg width="37" height="36" viewBox="0 0 37 36" fill="none" xmlns="http://www.w3.org/2000/svg">
<rect x="0.488281" width="36" height="36" rx="4" fill="white"/>
<path fill-rule="evenodd" clip-rule="evenodd" d="M18.3783 8.48616C18.5209 8.42463 18.6714 8.4252 18.8139 8.48781L33.4648 14.9255L33.0254 17.4404L18.5922 11.0984L3.89674 17.4361L3.46484 14.9179L18.3783 8.48616Z" fill="#4F46E5"/>
<path d="M13.9008 18.4404V27.4404H11.6561V22.043L9.59514 27.4404H7.78362L5.70956 22.0302V27.4404H3.46484V18.4404H6.11649L8.70251 24.6712L11.2623 18.4404H13.9008Z" fill="#4F46E5"/>
<path d="M20.2407 25.8507H16.8015L16.2501 27.4404H13.9004L17.2346 18.4404H19.8338L23.168 27.4404H20.7921L20.2407 25.8507ZM19.6631 24.1584L18.5211 20.8635L17.3922 24.1584H19.6631Z" fill="#4F46E5"/>
<path d="M27.8203 18.4404V20.1968H25.3787V27.4404H23.134V20.1968H20.6924V18.4404H27.8203Z" fill="#4F46E5"/>
<path d="M30.065 20.1968V22.0174H33.0711V23.7097H30.065V25.684H33.4649V27.4404H27.8203V18.4404H33.4649V20.1968H30.065Z" fill="#4F46E5"/>
</svg>
